# xmcd
#
# Track frame offsets:
#	150
#	11490
#	23469
#	36390
#	48589
#	62100
#	71902
#	83302
#	97505
#	109697
#	121310
#	133105
#
# Disc length: 1940 seconds
#
# Revision: 1
# Processed by: cddbd v1.4PL0 Copyright (c) Steve Scherf et al.
# Submitted via: audiograbber 1.80
#
DISCID=9107920c
DTITLE=Teodoro and Sampaio - Passe livre
DYEAR=1900
DGENRE=
TTITLE0=Passe livre
TTITLE1=Carisma
TTITLE2=As mãos da mulher
TTITLE3=Tudo por amor
TTITLE4=Não sou páreo pra você
TTITLE5=É preciso chorar
TTITLE6=A dormideira
TTITLE7=Vírus do desamor
TTITLE8=Consultei seu coração
TTITLE9=Morena criminosa
TTITLE10=Parabéns seus quinze anos
TTITLE11=Senti firmeza
EXTD=
EXTT0=
EXTT1=
EXTT2=
EXTT3=
EXTT4=
EXTT5=
EXTT6=
EXTT7=
EXTT8=
EXTT9=
EXTT10=
EXTT11=
PLAYORDER=
